<svg version="1.2" xmlns="http://www.w3.org/2000/svg" viewBox="0 0 600 400" width="600" height="400">
	<title>silver</title>
	<defs>
		<linearGradient id="g1" x2="1" gradientUnits="userSpaceOnUse" gradientTransform="matrix(0,164.892,-164.892,0,571.434,73.891)">
			<stop offset="0" stop-color="#e36b1f"/>
			<stop offset="1" stop-color="#f4a337"/>
		</linearGradient>
		<linearGradient id="g2" x2="1" gradientUnits="userSpaceOnUse" gradientTransform="matrix(0,162.479,-162.479,0,570.209,75.074)">
			<stop offset="0" stop-color="#f4a337"/>
			<stop offset="1" stop-color="#e36b1f"/>
		</linearGradient>
		<linearGradient id="g3" x2="1" gradientUnits="userSpaceOnUse" gradientTransform="matrix(0,160.87,-160.87,0,569.392,75.862)">
			<stop offset="0" stop-color="#f4a337"/>
			<stop offset="1" stop-color="#e36b1f"/>
		</linearGradient>
		<linearGradient id="g4" x2="1" gradientUnits="userSpaceOnUse" gradientTransform="matrix(0,123.346,-123.346,0,550.34,94.256)">
			<stop offset="0" stop-color="#e36b1f"/>
			<stop offset="1" stop-color="#f4a337"/>
		</linearGradient>
		<linearGradient id="g5" x2="1" gradientUnits="userSpaceOnUse" gradientTransform="matrix(0,119.044,-119.044,0,548.156,96.365)">
			<stop offset="0" stop-color="#c94b1b"/>
			<stop offset="1" stop-color="#e36b1f"/>
		</linearGradient>
		<linearGradient id="g6" x2="1" gradientUnits="userSpaceOnUse" gradientTransform="matrix(0,116.43,-116.43,0,546.829,97.646)">
			<stop offset="0" stop-color="#f4a337"/>
			<stop offset="1" stop-color="#e36b1f"/>
		</linearGradient>
		<linearGradient id="g7" x2="1" gradientUnits="userSpaceOnUse" gradientTransform="matrix(0,73.295,-69.708,0,523.108,118.84)">
			<stop offset="0" stop-color="#e36b1f"/>
			<stop offset="1" stop-color="#c94b1b"/>
		</linearGradient>
		<linearGradient id="g8" x2="1" gradientUnits="userSpaceOnUse" gradientTransform="matrix(0,73.295,-69.708,0,523.108,116.594)">
			<stop offset="0" stop-color="#f4b748"/>
			<stop offset="1" stop-color="#ed7e36"/>
		</linearGradient>
		<linearGradient id="g9" x2="1" gradientUnits="userSpaceOnUse" gradientTransform="matrix(74.56,118.815,-97.422,61.135,517.981,69.761)">
			<stop offset="0" stop-color="#ffffff"/>
			<stop offset="1" stop-color="#ffffff" stop-opacity="0"/>
		</linearGradient>
	</defs>
	<style>
		.s0 { fill: #d8dfea } 
		.s1 { fill: #f41943 } 
		.s2 { fill: #ba0f38 } 
		.s3 { fill: url(#g1) } 
		.s4 { fill: url(#g2) } 
		.s5 { fill: url(#g3) } 
		.s6 { fill: url(#g4) } 
		.s7 { fill: url(#g5) } 
		.s8 { fill: url(#g6) } 
		.s9 { fill: url(#g7) } 
		.s10 { fill: url(#g8) } 
		.s11 { opacity: .17;fill: url(#g9) } 
	</style>
	<g id="objects">
		<g id="&lt;Group&gt;">
			<g id="&lt;Group&gt;">
				<path id="&lt;Path&gt;" class="s0" d="m573.1 325.1c0 2-38.3 3.6-85.5 3.6-47.2 0-85.5-1.6-85.5-3.6 0-2.1 38.3-3.7 85.5-3.7 47.2 0 85.5 1.6 85.5 3.7z"/>
				<g id="&lt;Group&gt;">
					<g id="&lt;Group&gt;">
						<path id="&lt;Path&gt;" class="s1" d="m502.4 314.8l22.8-36c0.6-1 1.8-1.5 3-1.3l41.5 9.9c2.2 0.5 4.1-1.7 3.2-3.8l-35.2-86.2-75.4 30.7 35.2 86.3c0.8 2.1 3.7 2.3 4.9 0.4z"/>
						<path id="&lt;Path&gt;" class="s2" d="m515 238.2l-24.6 58.9-24-58.9z"/>
						<path id="&lt;Path&gt;" class="s1" d="m512.9 228.1l-4.1 10.1-15.1 37.1-0.6 1.5-5.5 13.4-9.9 24.2c-0.8 2.1-3.7 2.3-4.9 0.4l-22.8-36c-0.6-1-1.8-1.5-3-1.3l-41.4 9.9c-2.3 0.5-4.1-1.7-3.3-3.8l35.2-86.3z"/>
						<path id="&lt;Path&gt;" class="s2" d="m548 222.6c-3.3 3-26.5 23-60.4 23-6.4 0-12.7-0.6-19-2-15.3-3.2-29.7-10.5-41.4-21l10.3-25.3 11.8 4.9 1.1 0.4 37.2 15.2 37.2-15.2 1.1-0.4 11.8-4.9z"/>
					</g>
					<g id="&lt;Group&gt;">
						<path id="&lt;Path&gt;" class="s3" d="m487.7 238.4c-46.3 0-83.7-37.4-83.7-83.7 0-46.3 37.4-83.7 83.7-83.7 46.3 0 83.7 37.4 83.7 83.7 0 46.3-37.4 83.7-83.7 83.7z"/>
						<path id="&lt;Path&gt;" class="s4" d="m487.7 237.2c-45.6 0-82.5-36.9-82.5-82.5 0-45.6 36.9-82.5 82.5-82.5 45.6 0 82.5 36.9 82.5 82.5 0 45.6-36.9 82.5-82.5 82.5z"/>
						<path id="&lt;Path&gt;" class="s5" d="m487.7 236.4c-45.1 0-81.7-36.5-81.7-81.7 0-45.1 36.6-81.7 81.7-81.7 45.2 0 81.7 36.6 81.7 81.7 0 45.2-36.5 81.7-81.7 81.7z"/>
						<path id="&lt;Path&gt;" class="s6" d="m487.7 217.3c-34.6 0-62.6-28-62.6-62.6 0-34.6 28-62.6 62.6-62.6 34.6 0 62.6 28 62.6 62.6 0 34.6-28 62.6-62.6 62.6z"/>
						<path id="&lt;Path&gt;" class="s7" d="m487.7 215.2c-33.4 0-60.4-27.1-60.4-60.5 0-33.4 27-60.4 60.4-60.4 33.4 0 60.5 27 60.5 60.4 0 33.4-27.1 60.5-60.5 60.5z"/>
						<path id="&lt;Path&gt;" class="s8" d="m487.7 213.8c-32.7 0-59.1-26.4-59.1-59.1 0-32.7 26.4-59.1 59.1-59.1 32.7 0 59.1 26.4 59.1 59.1 0 32.7-26.4 59.1-59.1 59.1z"/>
						<path id="&lt;Path&gt;" class="s9" d="m487.7 117.6l12.1 24.5 27 1.6v2.3l-19.5 19.1 4.6 24.6v2.3l-24.2-12.7-24.2 12.7v-2.3l4.7-24.6-19.6-19.1v-2.3l27-1.6z"/>
						<path id="&lt;Path&gt;" class="s10" d="m487.7 115.3l12.1 24.5 27 3.9-19.5 19.1 4.6 26.9-24.2-12.7-24.2 12.7 4.7-26.9-19.6-19.1 27-3.9z"/>
						<path id="&lt;Path&gt;" class="s11" d="m542.4 94c-21.5 85.3-94.4 92.5-130.7 90.6-3.7-9.3-5.7-19.3-5.7-29.9 0-45.1 36.6-81.7 81.7-81.7 21 0 40.2 8 54.7 21z"/>
					</g>
				</g>
			</g>
		</g>
	</g>
</svg>