<svg version="1.2" xmlns="http://www.w3.org/2000/svg" viewBox="0 0 600 400" width="600" height="400">
	<title>silver</title>
	<defs>
		<linearGradient id="g1" x2="1" gradientUnits="userSpaceOnUse" gradientTransform="matrix(0,163.036,-163.036,0,195.549,73.859)">
			<stop offset="0" stop-color="#e3a010"/>
			<stop offset="1" stop-color="#f4cd27"/>
		</linearGradient>
		<linearGradient id="g2" x2="1" gradientUnits="userSpaceOnUse" gradientTransform="matrix(0,160.65,-160.65,0,194.337,75.028)">
			<stop offset="0" stop-color="#f4cd27"/>
			<stop offset="1" stop-color="#e3a010"/>
		</linearGradient>
		<linearGradient id="g3" x2="1" gradientUnits="userSpaceOnUse" gradientTransform="matrix(0,159.059,-159.059,0,193.53,75.808)">
			<stop offset="0" stop-color="#f4cd27"/>
			<stop offset="1" stop-color="#e3a010"/>
		</linearGradient>
		<linearGradient id="g4" x2="1" gradientUnits="userSpaceOnUse" gradientTransform="matrix(0,121.957,-121.957,0,174.693,93.994)">
			<stop offset="0" stop-color="#e3a010"/>
			<stop offset="1" stop-color="#f4cd27"/>
		</linearGradient>
		<linearGradient id="g5" x2="1" gradientUnits="userSpaceOnUse" gradientTransform="matrix(0,117.704,-117.704,0,172.533,96.079)">
			<stop offset="0" stop-color="#c97e0e"/>
			<stop offset="1" stop-color="#e3a010"/>
		</linearGradient>
		<linearGradient id="g6" x2="1" gradientUnits="userSpaceOnUse" gradientTransform="matrix(0,115.119,-115.119,0,171.221,97.346)">
			<stop offset="0" stop-color="#f4cd27"/>
			<stop offset="1" stop-color="#e3a010"/>
		</linearGradient>
		<linearGradient id="g7" x2="1" gradientUnits="userSpaceOnUse" gradientTransform="matrix(0,72.47,-68.923,0,147.767,118.301)">
			<stop offset="0" stop-color="#e3a010"/>
			<stop offset="1" stop-color="#c97e0e"/>
		</linearGradient>
		<linearGradient id="g8" x2="1" gradientUnits="userSpaceOnUse" gradientTransform="matrix(0,72.47,-68.923,0,147.767,116.08)">
			<stop offset="0" stop-color="#f4de38"/>
			<stop offset="1" stop-color="#edae27"/>
		</linearGradient>
		<linearGradient id="g9" x2="1" gradientUnits="userSpaceOnUse" gradientTransform="matrix(73.721,117.477,-96.325,60.447,142.698,69.775)">
			<stop offset="0" stop-color="#ffffff"/>
			<stop offset="1" stop-color="#ffffff" stop-opacity="0"/>
		</linearGradient>
	</defs>
	<style>
		.s0 { fill: #d8dfea } 
		.s1 { fill: #f41943 } 
		.s2 { fill: #ba0f38 } 
		.s3 { fill: url(#g1) } 
		.s4 { fill: url(#g2) } 
		.s5 { fill: url(#g3) } 
		.s6 { fill: url(#g4) } 
		.s7 { fill: url(#g5) } 
		.s8 { fill: url(#g6) } 
		.s9 { fill: url(#g7) } 
		.s10 { fill: url(#g8) } 
		.s11 { opacity: .17;fill: url(#g9) } 
	</style>
	<g id="objects">
		<g id="&lt;Group&gt;">
			<g id="&lt;Group&gt;">
				<path id="&lt;Path&gt;" class="s0" d="m197.9 325.1c0 2-38.3 3.6-85.5 3.6-47.2 0-85.5-1.6-85.5-3.6 0-2.1 38.3-3.7 85.5-3.7 47.2 0 85.5 1.6 85.5 3.7z"/>
				<g id="&lt;Group&gt;">
					<g id="&lt;Group&gt;">
						<path id="&lt;Path&gt;" class="s1" d="m127.2 314.8l22.8-36c0.6-1 1.8-1.5 3-1.3l41.4 9.9c2.3 0.5 4.1-1.7 3.3-3.8l-35.2-86.2-75.4 30.7 35.2 86.3c0.8 2.1 3.7 2.3 4.9 0.4z"/>
						<path id="&lt;Path&gt;" class="s2" d="m139.8 238.2l-24.6 58.9-24-58.9z"/>
						<path id="&lt;Path&gt;" class="s1" d="m137.7 228.1l-4.1 10.1-15.1 37.1-0.7 1.5-5.4 13.4-9.9 24.2c-0.8 2.1-3.7 2.3-5 0.4l-22.7-36c-0.6-1-1.8-1.5-3-1.3l-41.5 9.9c-2.2 0.5-4.1-1.7-3.2-3.8l35.2-86.3z"/>
						<path id="&lt;Path&gt;" class="s2" d="m172.8 222.6c-3.3 3-26.5 23-60.4 23-6.4 0-12.8-0.6-19-2-15.3-3.2-29.7-10.5-41.4-21l10.3-25.3 11.8 4.9 1.1 0.4 37.2 15.2 37.2-15.2 1.1-0.4 11.8-4.9z"/>
					</g>
					<g id="&lt;Group&gt;">
						<path id="&lt;Path&gt;" class="s3" d="m112.8 236.5c-45.8 0-82.8-37-82.8-82.7 0-45.8 37-82.8 82.8-82.8 45.7 0 82.7 37 82.7 82.8 0 45.7-37 82.7-82.7 82.7z"/>
						<path id="&lt;Path&gt;" class="s4" d="m112.8 235.3c-45.1 0-81.6-36.4-81.6-81.5 0-45.1 36.5-81.6 81.6-81.6 45.1 0 81.5 36.5 81.5 81.6 0 45.1-36.4 81.5-81.5 81.5z"/>
						<path id="&lt;Path&gt;" class="s5" d="m112.8 234.5c-44.7 0-80.8-36.1-80.8-80.7 0-44.7 36.1-80.8 80.8-80.8 44.6 0 80.7 36.1 80.7 80.8 0 44.6-36.1 80.7-80.7 80.7z"/>
						<path id="&lt;Path&gt;" class="s6" d="m112.8 215.7c-34.3 0-61.9-27.7-61.9-61.9 0-34.3 27.6-61.9 61.9-61.9 34.2 0 61.9 27.6 61.9 61.9 0 34.2-27.7 61.9-61.9 61.9z"/>
						<path id="&lt;Path&gt;" class="s7" d="m112.8 213.5c-33.1 0-59.8-26.7-59.8-59.7 0-33.1 26.7-59.8 59.8-59.8 33 0 59.7 26.7 59.7 59.8 0 33-26.7 59.7-59.7 59.7z"/>
						<path id="&lt;Path&gt;" class="s8" d="m112.8 212.2c-32.3 0-58.5-26.1-58.5-58.4 0-32.3 26.2-58.5 58.5-58.5 32.3 0 58.4 26.2 58.4 58.5 0 32.3-26.1 58.4-58.4 58.4z"/>
						<path id="&lt;Path&gt;" class="s9" d="m112.8 117l11.9 24.3 26.8 1.6v2.2l-19.4 18.9 4.6 24.4v2.2l-23.9-12.6-23.9 12.6v-2.2l4.5-24.4-19.3-18.9v-2.2l26.7-1.6z"/>
						<path id="&lt;Path&gt;" class="s10" d="m112.8 114.8l11.9 24.2 26.8 3.9-19.4 18.9 4.6 26.6-23.9-12.6-23.9 12.6 4.5-26.6-19.3-18.9 26.7-3.9z"/>
						<path id="&lt;Path&gt;" class="s11" d="m166.8 93.8c-21.2 84.2-93.3 91.4-129.2 89.5-3.6-9.1-5.6-19.1-5.6-29.5 0-44.6 36.2-80.8 80.8-80.8 20.8 0 39.7 7.9 54 20.8z"/>
					</g>
				</g>
			</g>
		</g>
	</g>
</svg>