<svg version="1.2" xmlns="http://www.w3.org/2000/svg" viewBox="0 0 600 400" width="600" height="400">
	<title>silver</title>
	<defs>
		<linearGradient id="g1" x2="1" gradientUnits="userSpaceOnUse" gradientTransform="matrix(0,162.003,-162.003,0,381,74.34)">
			<stop offset="0" stop-color="#a5a9aa"/>
			<stop offset="1" stop-color="#c6c9c9"/>
		</linearGradient>
		<linearGradient id="g2" x2="1" gradientUnits="userSpaceOnUse" gradientTransform="matrix(0,159.632,-159.632,0,379.796,75.503)">
			<stop offset="0" stop-color="#c6c9c9"/>
			<stop offset="1" stop-color="#a5a9aa"/>
		</linearGradient>
		<linearGradient id="g3" x2="1" gradientUnits="userSpaceOnUse" gradientTransform="matrix(0,166.309,-166.309,0,384.75,73.038)">
			<stop offset="0" stop-color="#c6c9c9"/>
			<stop offset="1" stop-color="#a5a9aa"/>
		</linearGradient>
		<linearGradient id="g4" x2="1" gradientUnits="userSpaceOnUse" gradientTransform="matrix(0,121.185,-121.185,0,360.276,94.348)">
			<stop offset="0" stop-color="#a5a9aa"/>
			<stop offset="1" stop-color="#c6c9c9"/>
		</linearGradient>
		<linearGradient id="g5" x2="1" gradientUnits="userSpaceOnUse" gradientTransform="matrix(0,116.958,-116.958,0,358.13,96.42)">
			<stop offset="0" stop-color="#898e8f"/>
			<stop offset="1" stop-color="#a5a9aa"/>
		</linearGradient>
		<linearGradient id="g6" x2="1" gradientUnits="userSpaceOnUse" gradientTransform="matrix(0,114.39,-114.39,0,357.827,97.679)">
			<stop offset="0" stop-color="#c6c9c9"/>
			<stop offset="1" stop-color="#a5a9aa"/>
		</linearGradient>
		<linearGradient id="g7" x2="1" gradientUnits="userSpaceOnUse" gradientTransform="matrix(0,72.011,-68.487,0,333.521,118.502)">
			<stop offset="0" stop-color="#a5a9aa"/>
			<stop offset="1" stop-color="#898e8f"/>
		</linearGradient>
		<linearGradient id="g8" x2="1" gradientUnits="userSpaceOnUse" gradientTransform="matrix(0,72.011,-68.487,0,335.521,116.295)">
			<stop offset="0" stop-color="#d2d4d4"/>
			<stop offset="1" stop-color="#b2b5b6"/>
		</linearGradient>
		<linearGradient id="g9" x2="1" gradientUnits="userSpaceOnUse" gradientTransform="matrix(73.254,116.733,-95.715,60.064,328.484,70.283)">
			<stop offset="0" stop-color="#ffffff"/>
			<stop offset="1" stop-color="#ffffff" stop-opacity="0"/>
		</linearGradient>
	</defs>
	<style>
		.s0 { fill: #d8dfea } 
		.s1 { fill: #f41943 } 
		.s2 { fill: #ba0f38 } 
		.s3 { fill: url(#g1) } 
		.s4 { fill: url(#g2) } 
		.s5 { fill: url(#g3) } 
		.s6 { fill: url(#g4) } 
		.s7 { fill: url(#g5) } 
		.s8 { fill: url(#g6) } 
		.s9 { fill: url(#g7) } 
		.s10 { fill: url(#g8) } 
		.s11 { opacity: .17;fill: url(#g9) } 
	</style>
	<g id="objects">
		<g id="&lt;Group&gt;">
			<g id="&lt;Group&gt;">
				<path id="&lt;Path&gt;" class="s0" d="m385.5 325.1c0 2-38.3 3.6-85.5 3.6-47.2 0-85.5-1.6-85.5-3.6 0-2.1 38.3-3.7 85.5-3.7 47.2 0 85.5 1.6 85.5 3.7z"/>
				<g id="&lt;Group&gt;">
					<g id="&lt;Group&gt;">
						<path id="&lt;Path&gt;" class="s1" d="m314.8 314.8l22.8-36c0.6-1 1.8-1.5 3-1.3l41.4 9.9c2.3 0.5 4.2-1.7 3.3-3.8l-35.2-86.2-75.4 30.7 35.2 86.3c0.8 2.1 3.7 2.3 4.9 0.4z"/>
						<path id="&lt;Path&gt;" class="s2" d="m327.4 238.2l-24.6 58.9-24-58.9z"/>
						<path id="&lt;Path&gt;" class="s1" d="m325.3 228.1l-4.1 10.1-15.1 37.1-0.7 1.5-5.4 13.4-9.9 24.2c-0.8 2.1-3.7 2.3-4.9 0.4l-22.8-36c-0.6-1-1.8-1.5-3-1.3l-41.4 9.9c-2.3 0.5-4.2-1.7-3.3-3.8l35.2-86.3z"/>
						<path id="&lt;Path&gt;" class="s2" d="m360.4 222.6c-3.3 3-26.5 23-60.4 23-6.4 0-12.7-0.6-19-2-15.3-3.2-29.7-10.5-41.4-21l10.3-25.3 11.8 4.9 1.1 0.4 37.2 15.2 37.2-15.2 1.1-0.4 11.8-4.9z"/>
					</g>
					<g id="&lt;Group&gt;">
						<path id="&lt;Path&gt;" class="s3" d="m298.8 236c-45.5 0-82.3-36.8-82.3-82.3 0-45.4 36.8-82.2 82.2-82.2 45.5 0 82.3 36.8 82.3 82.3 0 45.4-36.8 82.2-82.3 82.2z"/>
						<path id="&lt;Path&gt;" class="s4" d="m298.8 234.8c-44.9 0-81.1-36.2-81.1-81.1 0-44.8 36.2-81 81.1-81 44.8 0 81 36.2 81 81.1 0 44.8-36.2 81-81 81z"/>
						<path id="&lt;Path&gt;" class="s5" d="m300.3 239c-46.7 0-84.4-37.7-84.4-84.4 0-46.7 37.7-84.5 84.4-84.5 46.7 0 84.5 37.8 84.5 84.5 0 46.7-37.8 84.4-84.5 84.4z"/>
						<path id="&lt;Path&gt;" class="s6" d="m298.8 215.3c-34.1 0-61.6-27.5-61.6-61.6 0-34 27.5-61.5 61.6-61.5 34 0 61.5 27.5 61.5 61.5 0 34.1-27.5 61.6-61.5 61.6z"/>
						<path id="&lt;Path&gt;" class="s7" d="m298.8 213.1c-32.9 0-59.4-26.5-59.4-59.3 0-32.9 26.5-59.4 59.4-59.4 32.8 0 59.3 26.5 59.3 59.4 0 32.8-26.5 59.3-59.3 59.3z"/>
						<path id="&lt;Path&gt;" class="s8" d="m299.8 211.8c-32.2 0-58.1-25.9-58.1-58.1 0-32.1 25.9-58 58.1-58 32.1 0 58 25.9 58 58.1 0 32.1-25.9 58-58 58z"/>
						<path id="&lt;Path&gt;" class="s9" d="m298.8 117.2l11.8 24.1 26.6 1.7v2.2l-19.2 18.7 4.5 24.3v2.2l-23.7-12.5-23.8 12.5v-2.2l4.5-24.3-19.2-18.7v-2.2l26.6-1.7z"/>
						<path id="&lt;Path&gt;" class="s10" d="m300.8 115l11.8 24.1 26.6 3.9-19.2 18.7 4.5 26.5-23.7-12.5-23.8 12.5 4.5-26.5-19.2-18.7 26.6-3.9z"/>
						<path id="&lt;Path&gt;" class="s11" d="m352.5 94.1c-21.1 83.8-92.8 90.9-128.5 89-3.5-9.1-5.5-19-5.5-29.3 0-44.4 35.9-80.3 80.3-80.3 20.6 0 39.4 7.8 53.7 20.6z"/>
					</g>
				</g>
			</g>
		</g>
	</g>
</svg>