<svg version="1.2" xmlns="http://www.w3.org/2000/svg" viewBox="0 0 2200 2200" width="800" height="800">
	<title>bronze_coin</title>
	<defs>
		<linearGradient id="g1" x2="1" gradientUnits="userSpaceOnUse" gradientTransform="matrix(0,785.428,-785.428,0,965.801,1112.441)">
			<stop offset="0" stop-color="#a5a9aa"/>
			<stop offset="1" stop-color="#c6c9c9"/>
		</linearGradient>
		<linearGradient id="g2" x2="1" gradientUnits="userSpaceOnUse" gradientTransform="matrix(0,773.934,-773.934,0,959.965,1118.076)">
			<stop offset="0" stop-color="#c6c9c9"/>
			<stop offset="1" stop-color="#a5a9aa"/>
		</linearGradient>
		<linearGradient id="g3" x2="1" gradientUnits="userSpaceOnUse" gradientTransform="matrix(0,766.272,-766.272,0,956.075,1121.832)">
			<stop offset="0" stop-color="#c6c9c9"/>
			<stop offset="1" stop-color="#a5a9aa"/>
		</linearGradient>
		<linearGradient id="g4" x2="1" gradientUnits="userSpaceOnUse" gradientTransform="matrix(0,587.532,-587.532,0,865.327,1209.445)">
			<stop offset="0" stop-color="#a5a9aa"/>
			<stop offset="1" stop-color="#c6c9c9"/>
		</linearGradient>
		<linearGradient id="g5" x2="1" gradientUnits="userSpaceOnUse" gradientTransform="matrix(0,567.041,-567.041,0,854.924,1219.489)">
			<stop offset="0" stop-color="#898e8f"/>
			<stop offset="1" stop-color="#a5a9aa"/>
		</linearGradient>
		<linearGradient id="g6" x2="1" gradientUnits="userSpaceOnUse" gradientTransform="matrix(0,554.589,-554.589,0,848.602,1225.593)">
			<stop offset="0" stop-color="#c6c9c9"/>
			<stop offset="1" stop-color="#a5a9aa"/>
		</linearGradient>
		<linearGradient id="g7" x2="1" gradientUnits="userSpaceOnUse" gradientTransform="matrix(0,349.127,-332.04,0,735.612,1326.545)">
			<stop offset="0" stop-color="#a5a9aa"/>
			<stop offset="1" stop-color="#898e8f"/>
		</linearGradient>
		<linearGradient id="g8" x2="1" gradientUnits="userSpaceOnUse" gradientTransform="matrix(0,349.127,-332.04,0,735.612,1315.846)">
			<stop offset="0" stop-color="#d2d4d4"/>
			<stop offset="1" stop-color="#b2b5b6"/>
		</linearGradient>
		<linearGradient id="g9" x2="1" gradientUnits="userSpaceOnUse" gradientTransform="matrix(355.151,565.951,-464.049,291.205,711.191,1092.769)">
			<stop offset="0" stop-color="#ffffff"/>
			<stop offset="1" stop-color="#ffffff" stop-opacity="0"/>
		</linearGradient>
	</defs>
	<style>
		.s0 { fill: url(#g1) } 
		.s1 { fill: url(#g2) } 
		.s2 { fill: url(#g3) } 
		.s3 { fill: url(#g4) } 
		.s4 { fill: url(#g5) } 
		.s5 { fill: url(#g6) } 
		.s6 { fill: url(#g7) } 
		.s7 { fill: url(#g8) } 
		.s8 { opacity: .17;fill: url(#g9) } 
	</style>
	<g id="objects">
		<g id="&lt;Group&gt;">
			<path id="&lt;Path&gt;" class="s0" d="m965.8 1497.4c0 220.3-178.5 398.8-398.8 398.8-220.2 0-398.7-178.5-398.7-398.8 0-220.2 178.5-398.7 398.7-398.7 220.3 0 398.8 178.5 398.8 398.7z"/>
			<path id="&lt;Path&gt;" class="s1" d="m960 1497.4c0 217-176 393-393 393-217 0-392.9-176-392.9-393 0-217 175.9-392.9 392.9-392.9 217 0 393 175.9 393 392.9z"/>
			<path id="&lt;Path&gt;" class="s2" d="m956.1 1497.4c0 214.9-174.2 389.1-389.1 389.1-214.8 0-389-174.2-389-389.1 0-214.8 174.2-389 389-389 214.9 0 389.1 174.2 389.1 389z"/>
			<path id="&lt;Path&gt;" class="s3" d="m865.3 1497.4c0 164.8-133.5 298.3-298.3 298.3-164.7 0-298.3-133.5-298.3-298.3 0-164.7 133.6-298.3 298.3-298.3 164.8 0 298.3 133.6 298.3 298.3z"/>
			<path id="&lt;Path&gt;" class="s4" d="m854.9 1497.4c0 159-128.9 287.9-287.9 287.9-159 0-287.9-128.9-287.9-287.9 0-159 128.9-287.9 287.9-287.9 159 0 287.9 128.9 287.9 287.9z"/>
			<path id="&lt;Path&gt;" class="s5" d="m848.6 1497.4c0 155.5-126.1 281.6-281.6 281.6-155.5 0-281.5-126.1-281.5-281.6 0-155.5 126-281.5 281.5-281.5 155.5 0 281.6 126 281.6 281.5z"/>
			<path id="&lt;Path&gt;" class="s6" d="m567 1320.4l57.6 116.7 128.8 8v10.7l-93.2 90.9 22 117.5v10.7l-115.2-60.5-115.2 60.5v-10.7l22-117.5-93.1-90.9v-10.7l128.7-8z"/>
			<path id="&lt;Path&gt;" class="s7" d="m567 1309.7l57.6 116.7 128.8 18.7-93.2 90.9 22 128.2-115.2-60.5-115.2 60.5 22-128.2-93.1-90.9 128.7-18.7z"/>
			<path id="&lt;Path&gt;" class="s8" d="m827.4 1208.4c-102.2 406-449.5 440.6-622.6 431.3-17.3-44.1-26.8-92.1-26.8-142.3 0-214.8 174.2-389 389-389 100.2 0 191.5 37.8 260.4 100z"/>
		</g>
	</g>
</svg>